<?xml version="1.0" encoding="UTF-8" standalone="no"?>
<svg
   width="16"
   height="16.005"
   viewBox="0 0 4.233 4.235"
   version="1.1"
   id="svg698"
   sodipodi:docname="info.svg"
   inkscape:version="1.2.2 (b0a8486541, 2022-12-01)"
   xmlns:inkscape="http://www.inkscape.org/namespaces/inkscape"
   xmlns:sodipodi="http://sodipodi.sourceforge.net/DTD/sodipodi-0.dtd"
   xmlns="http://www.w3.org/2000/svg"
   xmlns:svg="http://www.w3.org/2000/svg">
  <defs
     id="defs702" />
  <sodipodi:namedview
     id="namedview700"
     pagecolor="#ffffff"
     bordercolor="#666666"
     borderopacity="1.0"
     inkscape:showpageshadow="2"
     inkscape:pageopacity="0.0"
     inkscape:pagecheckerboard="0"
     inkscape:deskcolor="#d1d1d1"
     showgrid="true"
     inkscape:zoom="29.490786"
     inkscape:cx="-7.2395494"
     inkscape:cy="17.225719"
     inkscape:window-width="3072"
     inkscape:window-height="1691"
     inkscape:window-x="0"
     inkscape:window-y="0"
     inkscape:window-maximized="1"
     inkscape:current-layer="svg698">
    <inkscape:grid
       type="xygrid"
       id="grid821" />
  </sodipodi:namedview>
  <g
     fill="#222222"
     id="g3575"
     transform="matrix(0.26460482,0,0,0.26460482,-3.3856e-4,7.3069547e-8)">
    <path
       d="M 7.996094,0 C 5.160156,0 2.703125,2 2.125,4.777344 1.597656,7.3125 2.8125,9.8125 4.996094,11.101562 L 5,12 c 0,0.554688 0.449219,1 1,1 h 4 c 0.550781,0 1,-0.445312 1,-1 V 11.101562 C 13.183594,9.808594 14.402344,7.304688 13.871094,4.769531 13.289062,1.996094 10.832031,0 7.996094,0 Z m 0,2 c 1.898437,0 3.527344,1.320312 3.917968,3.179688 0.386719,1.863281 -0.574218,3.726562 -2.3125,4.484374 C 9.238281,9.824219 9.003906,10.183594 9,10.578125 V 11 H 6.996094 v -0.417969 c 0,-0.398437 -0.234375,-0.753906 -0.597656,-0.914062 C 4.65625,8.90625 3.695312,7.042969 4.082031,5.183594 4.46875,3.324219 6.09375,2 7.996094,2 Z m 0,0"
       id="path3569" />
    <path
       d="m 6,15 c 0,0.554688 0.445312,1 1,1 h 2 c 0.554688,0 1,-0.445312 1,-1 V 14 H 6 Z m 0,0"
       id="path3571" />
    <path
       d="m 6.644531,6.144531 c -0.195312,0.195313 -0.195312,0.515625 0,0.707031 l 1,1 c 0.195313,0.195313 0.511719,0.195313 0.707031,0 l 1,-1 c 0.195313,-0.191406 0.195313,-0.511718 0,-0.707031 -0.195312,-0.191406 -0.511718,-0.191406 -0.707031,0 L 7.996094,6.792969 7.351562,6.144531 c -0.195312,-0.191406 -0.511718,-0.191406 -0.707031,0 z m 0,0"
       fill-opacity="0.5"
       id="path3573" />
  </g>
</svg>
